<svg width="57mm" height="88mm" version="1.1" viewBox="0 0 57 88" xmlns="http://www.w3.org/2000/svg" xmlns:xlink="http://www.w3.org/1999/xlink"><defs><linearGradient id="e" x1="14.86607" x2="14.86607" y2="29.73214" gradientTransform="scale(.8744746 1.143544)" gradientUnits="userSpaceOnUse"><stop stop-color="#F8F8FB" offset="0"/><stop stop-color="#EEEFF6" offset="1"/></linearGradient><linearGradient id="a" x1=".5" x2=".5" y2="1"><stop stop-color="#E83E3E" offset="0"/><stop stop-color="#CD1D1D" offset="1"/></linearGradient><linearGradient id="d" x1="12.39501" x2="12.39501" y1="12.58571" y2="23.0738" gradientTransform="scale(1.048809 .9534626)" gradientUnits="userSpaceOnUse"><stop stop-color="#E83E3E" offset="0"/><stop stop-color="#CD1D1D" offset="1"/></linearGradient><linearGradient id="c" x1="4.24264" x2="4.24264" y1="5.656854" y2="8.485281" gradientTransform="scale(1.414214 .7071068)" gradientUnits="userSpaceOnUse" xlink:href="#a"/><linearGradient id="b" x1="14.14214" x2="14.14214" y1="39.59798" y2="42.42641" gradientTransform="scale(1.414214 .7071068)" gradientUnits="userSpaceOnUse" xlink:href="#a"/></defs><g transform="scale(2.192308 2.588235)" fill="none" fill-rule="evenodd"><g transform="translate(-607,-2035)" fill-rule="nonzero"><g transform="translate(50,1871)"><g transform="translate(557,164)"><path d="m22 0c2.209139 0 4 1.790861 4 4v26c0 2.209139-1.790861 4-4 4h-18c-2.209139 0-4-1.790861-4-4v-26c0-2.209139 1.790861-4 4-4z" fill="url(#e)"/><path d="m7 4c.5522847 0 1 .4477152 1 1 0 .5522847-.4477153 1-1 1h-2c-.5522848 0-1-.4477153-1-1 0-.5522848.4477152-1 1-1z" fill="url(#c)"/><path d="m21 28c.552285 0 1 .447715 1 1s-.447715 1-1 1h-2c-.552285 0-1-.447715-1-1s.447715-1 1-1z" fill="url(#b)"/><path d="m15.18345 12c.879942 0 1.723109.349133 2.345011.971041.62194.621948.971542 1.465653.971542 2.34503 0 .874662-.34552 1.71363-.95283 2.325513l-3.820061 4.045028c-.188701.200047-.452066.313388-.727109.313388s-.538408-.113341-.726887-.313152l-3.812393-4.036576c-.6153737-.620838-.9607203-1.459775-.9607203-2.334201 0-.879612.3492527-1.723248.9710277-2.34503.621776-.621783 1.465406-.971041 2.345011-.971041.805816 0 1.581439.293118 2.183961.820357l.168489-.137955c.575209-.440199 1.282472-.682402 2.014958-.682402zm0 1.9996c-.298887 0-.587728.101998-.81956.286548l-.110947.09906-.546237.546757c-.360764.359819-.927688.387497-1.319726.08267l-.09415-.08313-.546386-.546393c-.246356-.246737-.58125-.385512-.930402-.385512-.349008 0-.683582.138684-.9306738.385779-.2468221.246824-.3852623.581294-.3852623.930692 0 .299484.1017112.588.2918385.825536l.10237.114335 3.105677 3.287768 3.104352-3.286652.109116-.121135c.184572-.232076.286441-.520744.286441-.819852 0-.348959-.138655-.683709-.385262-.930692-.24698-.246983-.582022-.385779-.931188-.385779zm-6.676085 1.499928-.0073618-.183457.00384.133409zm6.330574-2.473984-.10842.01934-.262685.06849c.120707-.03931.244814-.06875.371105-.08783zm-5.524811.528128-.1349866.124472c.043572-.04332.088572-.08488.1349866-.124472z" fill="url(#d)"/></g></g></g></g></svg>
